0
SECTION
2
HEADER
9
$INSUNITS
70
4
9
$ACADVER
1
AC1014
9
$HANDSEED
5
FFFF
0
ENDSEC
0
SECTION
2
TABLES
0
TABLE
2
VPORT
5
8
100
AcDbSymbolTable
0
ENDTAB
0
TABLE
2
LTYPE
5
5
100
AcDbSymbolTable
0
LTYPE
5
14
100
AcDbSymbolTableRecord
100
AcDbLinetypeTableRecord
2
BYBLOCK
70
0
0
LTYPE
5
15
100
AcDbSymbolTableRecord
100
AcDbLinetypeTableRecord
2
BYLAYER
70
0
0
ENDTAB
0
TABLE
2
LAYER
5
2
100
AcDbSymbolTable
70
2
0
LAYER
5
50
100
AcDbSymbolTableRecord
100
AcDbLayerTableRecord
2
0
70
0
6
CONTINUOUS
0
ENDTAB
0
TABLE
2
STYLE
5
3
100
AcDbSymbolTable
70
1
0
STYLE
5
11
100
AcDbSymbolTableRecord
100
AcDbTextStyleTableRecord
2
STANDARD
70
0
0
ENDTAB
0
TABLE
2
VIEW
5
6
100
AcDbSymbolTable
70
0
0
ENDTAB
0
TABLE
2
UCS
5
7
100
AcDbSymbolTable
70
0
0
ENDTAB
0
TABLE
2
APPID
5
9
100
AcDbSymbolTable
70
2
0
APPID
5
12
100
AcDbSymbolTableRecord
100
AcDbRegAppTableRecord
2
ACAD
70
0
0
ENDTAB
0
TABLE
2
DIMSTYLE
5
A
100
AcDbSymbolTable
70
1
0
ENDTAB
0
TABLE
2
BLOCK_RECORD
5
1
100
AcDbSymbolTable
70
1
0
BLOCK_RECORD
5
1F
100
AcDbSymbolTableRecord
100
AcDbBlockTableRecord
2
*MODEL_SPACE
0
BLOCK_RECORD
5
1B
100
AcDbSymbolTableRecord
100
AcDbBlockTableRecord
2
*PAPER_SPACE
0
ENDTAB
0
ENDSEC
0
SECTION
2
BLOCKS
0
BLOCK
5
20
100
AcDbEntity
100
AcDbBlockBegin
2
*MODEL_SPACE
0
ENDBLK
5
21
100
AcDbEntity
100
AcDbBlockEnd
0
BLOCK
5
1C
100
AcDbEntity
100
AcDbBlockBegin
2
*PAPER_SPACE
0
ENDBLK
5
1D
100
AcDbEntity
100
AcDbBlockEnd
0
ENDSEC
0
SECTION
2
ENTITIES
0
LWPOLYLINE
5
100
100
AcDbEntity
8
0
100
AcDbPolyline
90
4
70
1
43
0.0
10
41.42497108684141
20
12.769582825759699
10
-23.575028913158587
20
12.769582825759699
10
-23.575028913158587
20
-17.230417174240301
10
41.42497108684141
20
-17.230417174240301
0
CIRCLE
5
101
100
AcDbEntity
8
0
100
AcDbCircle
10
-20.075028913158587
20
9.2695828257596968
30
0
40
1.375
0
CIRCLE
5
102
100
AcDbEntity
8
0
100
AcDbCircle
10
37.92497108684141
20
9.2695828257596968
30
0
40
1.375
0
CIRCLE
5
103
100
AcDbEntity
8
0
100
AcDbCircle
10
37.92497108684141
20
-13.730417174240301
30
0
40
1.375
0
CIRCLE
5
104
100
AcDbEntity
8
0
100
AcDbCircle
10
-20.075028913158587
20
-13.730417174240301
30
0
40
1.375
0
LWPOLYLINE
5
105
100
AcDbEntity
8
0
100
AcDbPolyline
90
4
70
1
43
0.0
10
-14.575028913158587
20
7.169582825759699
10
-23.575028913158587
20
7.1695828257596981
10
-23.575028913158587
20
-7.8304171742403019
10
-14.575028913158587
20
-7.830417174240301
0
LWPOLYLINE
5
106
100
AcDbEntity
8
0
100
AcDbPolyline
90
4
70
1
43
0.0
10
-5.575028913158584
20
-17.230417174240301
10
-16.175028913158584
20
-17.230417174240301
10
-16.175028913158584
20
-11.230417174240301
10
-5.575028913158584
20
-11.230417174240301
0
LWPOLYLINE
5
107
100
AcDbEntity
8
0
100
AcDbPolyline
90
4
70
1
43
0.0
10
21.324971086841416
20
-12.230417174240301
10
14.324971086841414
20
-12.230417174240301
10
14.324971086841414
20
-17.230417174240301
10
21.324971086841416
20
-17.230417174240301
0
LWPOLYLINE
5
108
100
AcDbEntity
8
0
100
AcDbPolyline
90
4
70
1
43
0.0
10
33.64474355623544
20
-12.230417174240301
10
26.92497108684142
20
-12.230417174240301
10
26.92497108684142
20
-17.230417174240301
10
33.64474355623544
20
-17.230417174240301
0
LWPOLYLINE
5
109
100
AcDbEntity
8
0
100
AcDbPolyline
90
4
70
1
43
0.0
10
36.000000536441803
20
7.2695828257596968
10
41.42497108684141
20
7.2695828257596968
10
41.42497108684141
20
-11.730417174240301
10
36.000000536441803
20
-11.730417174240301
0
LWPOLYLINE
5
110
100
AcDbEntity
8
0
100
AcDbPolyline
90
4
70
1
43
0.0
10
35.92497108684141
20
12.000000178813934
10
-18.075028913158587
20
12.000000178813934
10
-18.075028913158583
20
8.0000001788139343
10
35.92497108684141
20
8.0000001788139343
0
ENDSEC
0
SECTION
2
OBJECTS
0
DICTIONARY
5
C
100
AcDbDictionary
3
ACAD_GROUP
350
D
3
ACAD_MLINESTYLE
350
17
0
DICTIONARY
5
D
100
AcDbDictionary
0
DICTIONARY
5
1A
330
C
100
AcDbDictionary
0
DICTIONARY
5
17
100
AcDbDictionary
0
ENDSEC
0
EOF
